# xmcd CD database file
#
# Track frame offsets:
#	150
#	11157
#	23115
#	36692
#	57220
#	73580
#	84872
#	95665
#	108740
#	117487
#	137142
#	148177
#
# Disc length: 2194 seconds
#
# Revision: 3
# Processed by: cddbd v1.5.1PL2 Copyright (c) Steve Scherf et al.
# Submitted via: CDex 1.70beta2
#
DISCID=b208900c
DTITLE=Elvis Presley - Country (Special Edition)
DYEAR=2000
DGENRE=Country
TTITLE0=Your Cheatin' Heart
TTITLE1=(Now And Then There's) A Fool Such As I
TTITLE2=There Goes My Everything
TTITLE3=He'll Have To Go
TTITLE4=Make The World Go Away
TTITLE5=You Don't Know Me
TTITLE6=When My Blue Moon Turns To Gold Again
TTITLE7=Take Good Care Of Her
TTITLE8=Welcome To My World
TTITLE9=Funny How Time Slips Away
TTITLE10=From A Jack To A King
TTITLE11=Always On My Mind
EXTD=YEAR: 2000
EXTT0=
EXTT1=
EXTT2=
EXTT3=
EXTT4=
EXTT5=
EXTT6=
EXTT7=
EXTT8=
EXTT9=
EXTT10=
EXTT11=
PLAYORDER=
